<svg xmlns="http://www.w3.org/2000/svg" viewBox="0 0 1440 1080">
  <defs>
    <linearGradient id="crypt" x1="0" x2="1" y1="0" y2="1">
      <stop offset="0%" stop-color="#0c1017" />
      <stop offset="50%" stop-color="#1b2837" />
      <stop offset="100%" stop-color="#05080c" />
    </linearGradient>
  </defs>
  <rect width="1440" height="1080" fill="#050507" />
  <rect x="42" y="42" width="1356" height="996" rx="28" fill="url(#crypt)" stroke="#9bd3f8" stroke-width="8" />
  <rect x="164" y="148" width="1112" height="784" rx="28" fill="#10151d" stroke="#f1d28a" stroke-width="6" />
  <rect x="252" y="252" width="240" height="216" rx="18" fill="#1a2230" stroke="#4bb0ff" stroke-width="5" />
  <rect x="948" y="252" width="240" height="216" rx="18" fill="#1a2230" stroke="#4bb0ff" stroke-width="5" />
  <rect x="252" y="620" width="240" height="200" rx="18" fill="#1a2230" stroke="#4bb0ff" stroke-width="5" />
  <rect x="948" y="620" width="240" height="200" rx="18" fill="#1a2230" stroke="#4bb0ff" stroke-width="5" />
  <circle cx="720" cy="540" r="146" fill="#17202c" stroke="#9bd3f8" stroke-width="8" />
  <circle cx="720" cy="540" r="82" fill="#0e1922" stroke="#f1d28a" stroke-width="6" />
  <path d="M492 360h456M492 720h456M356 468h144M940 468h144M356 612h144M940 612h144" stroke="#6eaecf" stroke-width="7" stroke-linecap="round" />
  <text x="720" y="106" fill="#f8f1de" font-size="48" font-family="Georgia, serif" text-anchor="middle">Cripta de Velkyn</text>
</svg>
