<svg width="640" height="420" viewBox="0 0 640 420" fill="none" xmlns="http://www.w3.org/2000/svg">
  <rect width="640" height="420" rx="28" fill="#0C1018"/>
  <rect x="20" y="20" width="600" height="380" rx="22" fill="url(#bg)"/>
  <circle cx="320" cy="158" r="62" fill="#E2B86B" fill-opacity="0.16"/>
  <path d="M256 236C256 199.549 285.549 170 322 170H324C360.451 170 390 199.549 390 236V308H256V236Z" fill="#201914"/>
  <path d="M274 145C274 119.595 294.595 99 320 99C345.405 99 366 119.595 366 145C366 170.405 345.405 191 320 191C294.595 191 274 170.405 274 145Z" fill="#F2C771"/>
  <path d="M286 125C300 107 322 97 348 101C343 84 329 72 311 72C286.147 72 266 92.1472 266 117V141C271.4 136.2 278.067 130.867 286 125Z" fill="#1A1410"/>
  <path d="M214 332H426" stroke="#F2C771" stroke-width="4" stroke-linecap="round"/>
  <path d="M238 348H402" stroke="#7C5A2E" stroke-width="4" stroke-linecap="round"/>
  <text x="320" y="370" fill="#F5D79A" font-size="22" text-anchor="middle" font-family="serif">
    Chronicle Portrait
  </text>
  <defs>
    <linearGradient id="bg" x1="60" y1="34" x2="586" y2="382" gradientUnits="userSpaceOnUse">
      <stop stop-color="#1A2232"/>
      <stop offset="1" stop-color="#120E0C"/>
    </linearGradient>
  </defs>
</svg>
