<svg width="192" height="192" viewBox="0 0 192 192" fill="none" xmlns="http://www.w3.org/2000/svg">
  <defs>
    <linearGradient id="gold" x1="96" y1="18" x2="96" y2="174" gradientUnits="userSpaceOnUse">
      <stop stop-color="#FFCC66"/>
      <stop offset="0.48" stop-color="#C9A15A"/>
      <stop offset="1" stop-color="#7A5A26"/>
    </linearGradient>
    <radialGradient id="glow" cx="0" cy="0" r="1" gradientUnits="userSpaceOnUse" gradientTransform="translate(96 96) rotate(90) scale(70 70)">
      <stop stop-color="#C9A15A" stop-opacity="0.32"/>
      <stop offset="1" stop-color="#C9A15A" stop-opacity="0"/>
    </radialGradient>
  </defs>
  <circle cx="96" cy="96" r="72" fill="url(#glow)"/>
  <circle cx="96" cy="96" r="61" stroke="url(#gold)" stroke-width="2.5" stroke-opacity="0.42"/>
  <circle cx="96" cy="96" r="49" stroke="url(#gold)" stroke-width="1.5" stroke-opacity="0.2"/>
  <path d="M96 28L104.5 47.5L126 39.5L117.5 60L138.5 71.5L117.5 83L126 103.5L104.5 95.5L96 115L87.5 95.5L66 103.5L74.5 83L53.5 71.5L74.5 60L66 39.5L87.5 47.5L96 28Z" fill="url(#gold)" fill-opacity="0.95"/>
  <path d="M96 50L101.5 63L116 57.5L110.5 71L124 78.5L110.5 86L116 99.5L101.5 94L96 107L90.5 94L76 99.5L81.5 86L68 78.5L81.5 71L76 57.5L90.5 63L96 50Z" fill="#140E08"/>
  <circle cx="96" cy="78" r="7" fill="url(#gold)"/>
  <path d="M96 88C87.5 88 80.5 95 80.5 103.5C80.5 112 87.5 119 96 119C104.5 119 111.5 112 111.5 103.5C111.5 95 104.5 88 96 88ZM96 93.5C101.4 93.5 106 98.1 106 103.5C106 108.9 101.4 113.5 96 113.5C90.6 113.5 86 108.9 86 103.5C86 98.1 90.6 93.5 96 93.5Z" fill="url(#gold)"/>
  <path d="M63 140C74.5 130.8 84.6 126.2 96 126.2C107.4 126.2 117.5 130.8 129 140" stroke="url(#gold)" stroke-width="3" stroke-linecap="round" stroke-opacity="0.78"/>
</svg>
