<svg width="320" height="320" viewBox="0 0 320 320" fill="none" xmlns="http://www.w3.org/2000/svg">
  <defs>
    <linearGradient id="runeGold" x1="160" y1="24" x2="160" y2="296" gradientUnits="userSpaceOnUse">
      <stop stop-color="#FFCC66"/>
      <stop offset="0.55" stop-color="#C9A15A"/>
      <stop offset="1" stop-color="#7A5A26"/>
    </linearGradient>
  </defs>
  <circle cx="160" cy="160" r="118" stroke="url(#runeGold)" stroke-width="2" stroke-opacity="0.42"/>
  <circle cx="160" cy="160" r="92" stroke="url(#runeGold)" stroke-width="1.5" stroke-opacity="0.24" stroke-dasharray="3 7"/>
  <circle cx="160" cy="160" r="22" stroke="url(#runeGold)" stroke-width="2" stroke-opacity="0.68"/>
  <path d="M160 40V62" stroke="url(#runeGold)" stroke-width="3" stroke-linecap="round"/>
  <path d="M160 258V280" stroke="url(#runeGold)" stroke-width="3" stroke-linecap="round"/>
  <path d="M40 160H62" stroke="url(#runeGold)" stroke-width="3" stroke-linecap="round"/>
  <path d="M258 160H280" stroke="url(#runeGold)" stroke-width="3" stroke-linecap="round"/>
  <path d="M86 86L102 102" stroke="url(#runeGold)" stroke-width="3" stroke-linecap="round"/>
  <path d="M218 218L234 234" stroke="url(#runeGold)" stroke-width="3" stroke-linecap="round"/>
  <path d="M86 234L102 218" stroke="url(#runeGold)" stroke-width="3" stroke-linecap="round"/>
  <path d="M218 102L234 86" stroke="url(#runeGold)" stroke-width="3" stroke-linecap="round"/>
  <path d="M160 114L174 146H206L180 166L192 198L160 179L128 198L140 166L114 146H146L160 114Z" stroke="url(#runeGold)" stroke-width="2.2" fill="#140E08" fill-opacity="0.42"/>
</svg>
